<svg width="250" height="250" viewBox="0 0 250 250" fill="none" xmlns="http://www.w3.org/2000/svg">
<path d="M125 96.5C130.903 96.5 135.688 91.715 135.688 85.8125C135.688 79.91 130.903 75.125 125 75.125C119.097 75.125 114.312 79.91 114.312 85.8125C114.312 91.715 119.097 96.5 125 96.5Z" fill="#F8BF02"/>
<path d="M43.0625 53.75C40.2282 53.7507 37.5102 54.8769 35.5061 56.8811C33.5019 58.8852 32.3757 61.6032 32.375 64.4375H53.75C53.7493 61.6032 52.6231 58.8852 50.6189 56.8811C48.6148 54.8769 45.8968 53.7507 43.0625 53.75Z" fill="#F8BF02"/>
<path d="M206.938 53.75C204.103 53.7507 201.385 54.8769 199.381 56.8811C197.377 58.8852 196.251 61.6032 196.25 64.4375H217.625C217.624 61.6032 216.498 58.8852 214.494 56.8811C212.49 54.8769 209.772 53.7507 206.938 53.75Z" fill="#F8BF02"/>
<path d="M68 123.219C68 125.581 68.9383 127.846 70.6086 129.516C72.2788 131.187 74.5442 132.125 76.9062 132.125H173.094C174.263 132.125 175.421 131.895 176.502 131.447C177.583 130.999 178.564 130.343 179.391 129.516C180.218 128.689 180.874 127.708 181.322 126.627C181.77 125.546 182 124.388 182 123.219V117.875H68V123.219Z" fill="#F8BF02"/>
<path d="M110.75 160.625H139.25V189.125H110.75V160.625Z" fill="#F8BF02"/>
<path d="M125 35.9375C123.124 35.9405 121.282 36.4355 119.658 37.3733C118.033 38.311 116.683 39.6585 115.743 41.2813C115.502 41.6867 115.344 42.1358 115.278 42.6027C115.212 43.0697 115.24 43.545 115.359 44.0012C115.478 44.4574 115.687 44.8854 115.973 45.2604C116.258 45.6354 116.616 45.9499 117.024 46.1857C117.433 46.4215 117.884 46.5739 118.351 46.634C118.819 46.6941 119.294 46.6608 119.749 46.536C120.203 46.4111 120.629 46.1973 121 45.9068C121.372 45.6163 121.682 45.255 121.913 44.8438C122.226 44.302 122.676 43.8521 123.218 43.5393C123.76 43.2266 124.374 43.0619 125 43.0619C125.626 43.0619 126.24 43.2266 126.782 43.5393C127.324 43.8521 127.774 44.302 128.087 44.8438C128.318 45.255 128.628 45.6163 128.999 45.9068C129.371 46.1973 129.796 46.4111 130.251 46.536C130.706 46.6608 131.181 46.6941 131.648 46.634C132.116 46.5739 132.567 46.4215 132.976 46.1857C133.384 45.9499 133.741 45.6354 134.027 45.2604C134.313 44.8854 134.522 44.4574 134.641 44.0012C134.76 43.545 134.788 43.0697 134.722 42.6027C134.656 42.1358 134.498 41.6867 134.257 41.2813C133.316 39.6585 131.966 38.311 130.342 37.3733C128.718 36.4355 126.876 35.9405 125 35.9375V35.9375Z" fill="#171717"/>
<path d="M137.346 39.5031C137.82 40.3209 138.598 40.9172 139.511 41.1609C140.424 41.4045 141.397 41.2755 142.214 40.8023C143.032 40.329 143.629 39.5503 143.872 38.6374C144.116 37.7245 143.987 36.7522 143.514 35.9344C141.636 32.6857 138.937 29.9881 135.688 28.1127C132.438 26.2373 128.752 25.25 125 25.25C121.248 25.25 117.562 26.2373 114.312 28.1127C111.062 29.9881 108.363 32.6857 106.486 35.9344C106.252 36.3393 106.099 36.7864 106.038 37.2502C105.976 37.714 106.007 38.1854 106.127 38.6374C106.248 39.0894 106.456 39.5133 106.741 39.8847C107.025 40.2562 107.38 40.568 107.785 40.8023C108.19 41.0366 108.637 41.1889 109.101 41.2504C109.565 41.3119 110.036 41.2815 110.488 41.1609C110.94 41.0402 111.364 40.8317 111.735 40.5473C112.107 40.2628 112.419 39.908 112.653 39.5031C113.904 37.3359 115.704 35.5362 117.871 34.285C120.039 33.0338 122.497 32.375 125 32.375C127.502 32.375 129.961 33.0338 132.128 34.285C134.295 35.5362 136.095 37.3359 137.346 39.5031V39.5031Z" fill="#171717"/>
<path d="M98.5288 35.4592C98.9339 35.6933 99.3811 35.8452 99.8449 35.9064C100.309 35.9675 100.78 35.9367 101.232 35.8157C101.684 35.6947 102.108 35.4859 102.479 35.2012C102.85 34.9164 103.162 34.5614 103.396 34.1563C105.586 30.3646 108.735 27.216 112.527 25.027C116.32 22.8379 120.621 21.6855 125 21.6855C129.379 21.6855 133.68 22.8379 137.473 25.027C141.265 27.216 144.414 30.3646 146.604 34.1563C146.832 34.5733 147.141 34.9406 147.512 35.2365C147.884 35.5325 148.311 35.7511 148.768 35.8795C149.226 36.0079 149.704 36.0436 150.176 35.9843C150.647 35.9251 151.102 35.7722 151.513 35.5346C151.925 35.2969 152.284 34.9794 152.571 34.6007C152.858 34.222 153.066 33.7898 153.184 33.3294C153.301 32.869 153.325 32.3898 153.254 31.92C153.184 31.4502 153.02 30.9993 152.772 30.5938C149.957 25.7199 145.908 21.6729 141.033 18.8592C136.158 16.0455 130.629 14.5643 125 14.5643C119.371 14.5643 113.842 16.0455 108.967 18.8592C104.092 21.6729 100.043 25.7199 97.2276 30.5938C96.7552 31.4116 96.627 32.3835 96.871 33.2959C97.115 34.2082 97.7112 34.9864 98.5288 35.4592V35.4592Z" fill="#171717"/>
<path d="M125 100.062C127.818 100.062 130.574 99.2267 132.917 97.6609C135.26 96.0951 137.087 93.8696 138.165 91.2657C139.244 88.6619 139.526 85.7967 138.976 83.0324C138.426 80.2682 137.069 77.7291 135.076 75.7362C133.083 73.7433 130.544 72.3861 127.78 71.8363C125.016 71.2864 122.151 71.5686 119.547 72.6472C116.943 73.7257 114.717 75.5522 113.152 77.8956C111.586 80.239 110.75 82.9941 110.75 85.8125C110.754 89.5905 112.257 93.2126 114.928 95.8841C117.6 98.5555 121.222 100.058 125 100.062V100.062ZM125 78.6875C126.409 78.6875 127.787 79.1054 128.958 79.8883C130.13 80.6712 131.043 81.7839 131.583 83.0859C132.122 84.3878 132.263 85.8204 131.988 87.2025C131.713 88.5846 131.035 89.8542 130.038 90.8506C129.042 91.8471 127.772 92.5257 126.39 92.8006C125.008 93.0755 123.575 92.9344 122.273 92.3951C120.971 91.8558 119.859 90.9426 119.076 89.7709C118.293 88.5992 117.875 87.2217 117.875 85.8125C117.877 83.9235 118.629 82.1125 119.964 80.7768C121.3 79.4411 123.111 78.6897 125 78.6875V78.6875Z" fill="#171717"/>
<path d="M231.875 60.875H220.738C219.947 57.816 218.163 55.1064 215.665 53.1719C213.167 51.2373 210.097 50.1876 206.938 50.1876C203.778 50.1876 200.708 51.2373 198.21 53.1719C195.712 55.1064 193.928 57.816 193.137 60.875H182C181.055 60.875 180.149 61.2503 179.481 61.9184C178.813 62.5865 178.438 63.4927 178.438 64.4375C178.438 65.3823 178.813 66.2885 179.481 66.9566C180.149 67.6247 181.055 68 182 68H203.375V75.125H147.528C145.76 71.4137 143.105 68.1954 139.797 65.755C136.489 63.3145 132.63 61.7271 128.562 61.1333V53.75C128.562 52.8052 128.187 51.899 127.519 51.2309C126.851 50.5628 125.945 50.1875 125 50.1875C124.055 50.1875 123.149 50.5628 122.481 51.2309C121.813 51.899 121.438 52.8052 121.438 53.75V61.1333C117.37 61.7271 113.511 63.3145 110.203 65.755C106.895 68.1954 104.24 71.4137 102.472 75.125H46.625V68H68C68.9448 68 69.851 67.6247 70.5191 66.9566C71.1872 66.2885 71.5625 65.3823 71.5625 64.4375C71.5625 63.4927 71.1872 62.5865 70.5191 61.9184C69.851 61.2503 68.9448 60.875 68 60.875H56.8627C56.0723 57.816 54.2878 55.1064 51.7899 53.1719C49.2919 51.2373 46.222 50.1876 43.0625 50.1876C39.903 50.1876 36.8331 51.2373 34.3351 53.1719C31.8372 55.1064 30.0527 57.816 29.2623 60.875H18.125C17.1802 60.875 16.274 61.2503 15.6059 61.9184C14.9378 62.5865 14.5625 63.4927 14.5625 64.4375C14.5625 65.3823 14.9378 66.2885 15.6059 66.9566C16.274 67.6247 17.1802 68 18.125 68H39.5V75.125H35.9375C34.9927 75.125 34.0865 75.5003 33.4184 76.1684C32.7503 76.8365 32.375 77.7427 32.375 78.6875V84.0312C32.3787 87.337 33.6935 90.5064 36.031 92.844C38.3686 95.1815 41.538 96.4963 44.8438 96.5H78.6875V114.312H68C67.0552 114.312 66.149 114.688 65.4809 115.356C64.8128 116.024 64.4375 116.93 64.4375 117.875V123.219C64.4412 126.525 65.756 129.694 68.0935 132.031C70.4311 134.369 73.6005 135.684 76.9062 135.688H114.842L88.1237 157.062H82.25C81.3052 157.062 80.399 157.438 79.7309 158.106C79.0628 158.774 78.6875 159.68 78.6875 160.625V231.875C78.6875 232.82 79.0628 233.726 79.7309 234.394C80.399 235.062 81.3052 235.438 82.25 235.438H167.75C168.695 235.438 169.601 235.062 170.269 234.394C170.937 233.726 171.312 232.82 171.312 231.875V160.625C171.312 159.68 170.937 158.774 170.269 158.106C169.601 157.438 168.695 157.062 167.75 157.062H161.876L135.158 135.688H173.094C176.4 135.684 179.569 134.369 181.906 132.031C184.244 129.694 185.559 126.525 185.562 123.219V117.875C185.562 116.93 185.187 116.024 184.519 115.356C183.851 114.688 182.945 114.312 182 114.312H171.312V96.5H205.156C208.462 96.4963 211.631 95.1815 213.969 92.844C216.306 90.5064 217.621 87.337 217.625 84.0312V78.6875C217.625 77.7427 217.25 76.8365 216.582 76.1684C215.913 75.5003 215.007 75.125 214.062 75.125H210.5V68H231.875C232.82 68 233.726 67.6247 234.394 66.9566C235.062 66.2885 235.438 65.3823 235.438 64.4375C235.438 63.4927 235.062 62.5865 234.394 61.9184C233.726 61.2503 232.82 60.875 231.875 60.875ZM125 68C128.523 68 131.967 69.0447 134.896 71.0019C137.825 72.9592 140.108 75.7411 141.457 78.9959C142.805 82.2508 143.158 85.8323 142.47 89.2875C141.783 92.7428 140.086 95.9167 137.595 98.4078C135.104 100.899 131.93 102.595 128.475 103.283C125.02 103.97 121.438 103.617 118.183 102.269C114.929 100.921 112.147 98.6378 110.189 95.7086C108.232 92.7793 107.188 89.3355 107.188 85.8125C107.192 81.0898 109.07 76.5618 112.41 73.2224C115.749 69.8829 120.277 68.0047 125 68ZM36.9038 60.875C37.5266 59.7922 38.4238 58.8927 39.5051 58.2672C40.5863 57.6417 41.8134 57.3124 43.0625 57.3124C44.3116 57.3124 45.5387 57.6417 46.6199 58.2672C47.7012 58.8927 48.5984 59.7922 49.2212 60.875H36.9038ZM164.188 164.188V228.312H85.8125V164.188H107.188V189.125C107.188 190.07 107.563 190.976 108.231 191.644C108.899 192.312 109.805 192.688 110.75 192.688H139.25C140.195 192.688 141.101 192.312 141.769 191.644C142.437 190.976 142.812 190.07 142.812 189.125V164.188H164.188ZM114.312 185.562V164.188H135.688V185.562H114.312ZM150.467 157.062H99.5326L125 136.689L150.467 157.062ZM178.438 121.438V123.219C178.436 124.636 177.873 125.994 176.871 126.996C175.869 127.998 174.511 128.561 173.094 128.562H76.9062C75.4894 128.561 74.1308 127.998 73.1289 126.996C72.1271 125.994 71.5637 124.636 71.5625 123.219V121.438H178.438ZM210.5 84.0312C210.499 85.4481 209.935 86.8067 208.934 87.8086C207.932 88.8104 206.573 89.3738 205.156 89.375H167.75C166.805 89.375 165.899 89.7503 165.231 90.4184C164.563 91.0865 164.188 91.9927 164.188 92.9375V114.312H85.8125V92.9375C85.8125 91.9927 85.4372 91.0865 84.7691 90.4184C84.101 89.7503 83.1948 89.375 82.25 89.375H44.8438C43.4269 89.3738 42.0683 88.8104 41.0665 87.8086C40.0646 86.8067 39.5012 85.4481 39.5 84.0312V82.25H100.321C100.149 83.4297 100.063 84.6203 100.062 85.8125C100.062 92.4263 102.69 98.7693 107.367 103.446C112.043 108.123 118.386 110.75 125 110.75C131.614 110.75 137.957 108.123 142.633 103.446C147.31 98.7693 149.938 92.4263 149.938 85.8125C149.937 84.6203 149.851 83.4297 149.679 82.25H210.5V84.0312ZM200.779 60.875C201.402 59.7922 202.299 58.8927 203.38 58.2672C204.461 57.6417 205.688 57.3124 206.938 57.3124C208.187 57.3124 209.414 57.6417 210.495 58.2672C211.576 58.8927 212.473 59.7922 213.096 60.875H200.779Z" fill="#171717"/>
</svg>
