<svg width="250" height="250" viewBox="0 0 250 250" fill="none" xmlns="http://www.w3.org/2000/svg">
<path d="M118 153V195H76V153H90V174L97 170.5L104 174V153H118Z" fill="#F8BF02"/>
<path d="M79.5 20H121.5L118 34H83L79.5 20Z" fill="#F8BF02"/>
<path d="M149.5 79.5C149.5 81.3565 150.237 83.137 151.55 84.4497C152.863 85.7625 154.643 86.5 156.5 86.5V121.5C156.5 121.5 132 96.5319 132 83C132 76.5022 134.581 70.2705 139.176 65.6759C143.771 61.0812 150.002 58.5 156.5 58.5V72.5C154.643 72.5 152.863 73.2375 151.55 74.5503C150.237 75.863 149.5 77.6435 149.5 79.5Z" fill="#F8BF02"/>
<path d="M156.5 157.668V195H128.5V125H153V160L156.5 157.668Z" fill="#F8BF02"/>
<path d="M121.5 20L118 34H83L79.5 20H121.5Z" fill="#F8BF02"/>
<path d="M118 153V195H76V153H90V174L97 170.5L104 174V153H118Z" fill="#F8BF02"/>
<path d="M198.5 125V195H128.5V125H153V160L156.5 157.668L163.5 153L174 160V125H198.5Z" fill="#F8BF02"/>
<path d="M156.5 58.5C150.002 58.5 143.771 61.0812 139.176 65.6759C134.581 70.2705 132 76.5022 132 83C132 96.5319 156.5 121.5 156.5 121.5C156.5 121.5 181 96.5319 181 83C181 76.5022 178.419 70.2705 173.824 65.6759C169.229 61.0812 162.998 58.5 156.5 58.5ZM156.5 86.5C155.116 86.5 153.762 86.0895 152.611 85.3203C151.46 84.5511 150.563 83.4579 150.033 82.1788C149.503 80.8997 149.364 79.4922 149.635 78.1344C149.905 76.7765 150.571 75.5292 151.55 74.5503C152.529 73.5713 153.776 72.9046 155.134 72.6345C156.492 72.3644 157.9 72.503 159.179 73.0328C160.458 73.5627 161.551 74.4599 162.32 75.611C163.089 76.7621 163.5 78.1155 163.5 79.5C163.5 81.3565 162.763 83.137 161.45 84.4497C160.137 85.7625 158.357 86.5 156.5 86.5Z" fill="#F8BF02"/>
<path d="M83 212.5H58.5C57.5717 212.5 56.6815 212.869 56.0251 213.525C55.3687 214.182 55 215.072 55 216C55 216.928 55.3687 217.818 56.0251 218.475C56.6815 219.131 57.5717 219.5 58.5 219.5H83C83.9283 219.5 84.8185 219.131 85.4749 218.475C86.1313 217.818 86.5 216.928 86.5 216C86.5 215.072 86.1313 214.182 85.4749 213.525C84.8185 212.869 83.9283 212.5 83 212.5Z" fill="#171717"/>
<path d="M96.5625 212.5H93.0625C92.1342 212.5 91.244 212.869 90.5876 213.525C89.9312 214.182 89.5625 215.072 89.5625 216C89.5625 216.928 89.9312 217.818 90.5876 218.475C91.244 219.131 92.1342 219.5 93.0625 219.5H96.5625C97.4908 219.5 98.381 219.131 99.0374 218.475C99.6938 217.818 100.062 216.928 100.062 216C100.062 215.072 99.6938 214.182 99.0374 213.525C98.381 212.869 97.4908 212.5 96.5625 212.5Z" fill="#171717"/>
<path d="M198.5 121.5H161.334C167.853 114.496 184.5 95.4031 184.5 83C184.491 76.181 181.997 69.5991 177.485 64.4863C172.972 59.3735 166.752 56.0803 159.987 55.2231C159.991 55.1488 160 55.0744 160 55V34C159.995 29.3601 158.15 24.9116 154.869 21.6307C151.588 18.3499 147.14 16.5046 142.5 16.5H58.5C53.8601 16.5046 49.4116 18.3499 46.1307 21.6307C42.8499 24.9116 41.0046 29.3601 41 34V216C41.0046 220.64 42.8499 225.088 46.1307 228.369C49.4116 231.65 53.8601 233.495 58.5 233.5H142.5C147.14 233.495 151.588 231.65 154.869 228.369C158.15 225.088 159.995 220.64 160 216V198.5H198.5C199.428 198.5 200.318 198.131 200.975 197.475C201.631 196.818 202 195.928 202 195V125C202 124.072 201.631 123.182 200.975 122.525C200.318 121.869 199.428 121.5 198.5 121.5ZM170.5 128.5V153.459L165.443 150.086C164.867 149.704 164.191 149.5 163.5 149.5C162.809 149.5 162.133 149.704 161.557 150.086L156.5 153.459V128.5H170.5ZM156.5 62C162.068 62.0059 167.406 64.2203 171.343 68.1573C175.28 72.0943 177.494 77.4323 177.5 83C177.5 87.6725 173.423 95.5344 166.02 105.133C162.437 109.779 158.814 113.87 156.5 116.394C154.194 113.883 150.598 109.819 147.019 105.186C139.591 95.5606 135.5 87.6856 135.5 83C135.506 77.4323 137.72 72.0943 141.657 68.1573C145.594 64.2203 150.932 62.0059 156.5 62V62ZM117.016 23.5L115.266 30.5H85.7344L83.9844 23.5H117.016ZM153 216C152.996 218.784 151.889 221.452 149.921 223.421C147.952 225.389 145.284 226.496 142.5 226.5H58.5C55.7164 226.496 53.0478 225.389 51.0795 223.421C49.1111 221.452 48.0037 218.784 48 216V34C48.0037 31.2164 49.1111 28.5478 51.0795 26.5795C53.0478 24.6111 55.7164 23.5037 58.5 23.5H76.7656L79.605 34.8487C79.7943 35.6059 80.2312 36.2781 80.8463 36.7585C81.4615 37.2389 82.2195 37.4999 83 37.5H118C118.78 37.4999 119.539 37.2389 120.154 36.7585C120.769 36.2781 121.206 35.6059 121.395 34.8487L124.234 23.5H142.5C145.284 23.5037 147.952 24.6111 149.921 26.5795C151.889 28.5478 152.996 31.2164 153 34V55C153 55.0744 153.009 55.1488 153.013 55.2231C146.248 56.0803 140.028 59.3735 135.515 64.4863C131.003 69.5991 128.509 76.181 128.5 83C128.5 95.4031 145.147 114.496 151.666 121.5H128.5C127.572 121.5 126.682 121.869 126.025 122.525C125.369 123.182 125 124.072 125 125V195C125 195.928 125.369 196.818 126.025 197.475C126.682 198.131 127.572 198.5 128.5 198.5H153V216ZM195 191.5H132V128.5H149.5V160C149.501 160.633 149.673 161.254 149.999 161.797C150.325 162.341 150.792 162.785 151.35 163.084C151.908 163.383 152.537 163.525 153.17 163.495C153.802 163.465 154.415 163.264 154.943 162.914L163.5 157.209L172.057 162.914C172.633 163.296 173.309 163.5 174 163.5C174.928 163.498 175.817 163.129 176.473 162.473C177.129 161.817 177.498 160.928 177.5 160V128.5H195V191.5Z" fill="#171717"/>
<path d="M146 79.5C146 81.5767 146.616 83.6068 147.77 85.3335C148.923 87.0602 150.563 88.406 152.482 89.2007C154.4 89.9955 156.512 90.2034 158.548 89.7982C160.585 89.3931 162.456 88.3931 163.925 86.9246C165.393 85.4562 166.393 83.5852 166.798 81.5484C167.203 79.5116 166.995 77.4004 166.201 75.4818C165.406 73.5632 164.06 71.9233 162.333 70.7696C160.607 69.6158 158.577 69 156.5 69C153.716 69.0032 151.047 70.1105 149.079 72.079C147.111 74.0474 146.003 76.7162 146 79.5V79.5ZM160 79.5C160 80.1922 159.795 80.8689 159.41 81.4445C159.026 82.0201 158.479 82.4687 157.839 82.7336C157.2 82.9985 156.496 83.0678 155.817 82.9327C155.138 82.7977 154.515 82.4644 154.025 81.9749C153.536 81.4854 153.202 80.8618 153.067 80.1828C152.932 79.5039 153.002 78.8001 153.266 78.1606C153.531 77.5211 153.98 76.9744 154.556 76.5899C155.131 76.2053 155.808 76 156.5 76C157.428 76.001 158.318 76.3701 158.974 77.0263C159.63 77.6824 159.999 78.5721 160 79.5V79.5Z" fill="#171717"/>
<path d="M118 149.5H76C75.0717 149.5 74.1815 149.869 73.5251 150.525C72.8687 151.182 72.5 152.072 72.5 153V195C72.5 195.928 72.8687 196.818 73.5251 197.475C74.1815 198.131 75.0717 198.5 76 198.5H118C118.928 198.5 119.818 198.131 120.475 197.475C121.131 196.818 121.5 195.928 121.5 195V153C121.5 152.072 121.131 151.182 120.475 150.525C119.818 149.869 118.928 149.5 118 149.5ZM93.5 156.5H100.5V168.339L98.5663 167.367C98.0795 167.126 97.5434 167 97 167C96.4566 167 95.9205 167.126 95.4337 167.367L93.5 168.339V156.5ZM114.5 191.5H79.5V156.5H86.5V174C86.4996 174.597 86.6518 175.184 86.9422 175.705C87.2327 176.227 87.6517 176.666 88.1594 176.979C88.667 177.293 89.2466 177.472 89.8429 177.499C90.4392 177.526 91.0324 177.4 91.5663 177.133L97 174.411L102.434 177.133C102.968 177.4 103.561 177.526 104.157 177.499C104.753 177.472 105.333 177.293 105.841 176.979C106.348 176.666 106.767 176.227 107.058 175.705C107.348 175.184 107.5 174.597 107.5 174V156.5H114.5V191.5Z" fill="#171717"/>
</svg>
